# WaveFront *.obj file (generated by Autodesk ATF)

mtllib 211022_A042_paDemo-Triangle_PF v3.mtl

g Body1

v 100.000000 0.000000 0.000000
v 50.000000 50.000000 0.000000
v 50.000000 50.000000 30.000000
v 100.000000 0.000000 30.000000
v 0.000000 0.000000 0.000000
v 0.000000 0.000000 30.000000
vt 0.000000 0.000000 0.000000
vt 7.071068 0.000000 0.000000
vt 0.000000 3.000000 0.000000
vt 7.071068 3.000000 0.000000
vt 0.000000 0.000000 0.000000
vt 10.000000 0.000000 0.000000
vt 0.000000 3.000000 0.000000
vt 10.000000 3.000000 0.000000
vt 0.000000 0.000000 0.000000
vt 7.071068 0.000000 0.000000
vt 0.000000 3.000000 0.000000
vt 7.071068 3.000000 0.000000
vt -0.000000 2.500000 0.000000
vt -5.000000 -2.500000 0.000000
vt 5.000000 -2.500000 0.000000
vt 5.000000 -2.500000 0.000000
vt 0.000000 2.500000 0.000000
vt -5.000000 -2.500000 0.000000
vn 0.070711 0.070711 0.000000
vn 0.070711 0.070711 0.000000
vn 0.070711 0.070711 0.000000
vn 0.070711 0.070711 0.000000
vn 0.000000 -0.100000 0.000000
vn 0.000000 -0.100000 0.000000
vn 0.000000 -0.100000 0.000000
vn 0.000000 -0.100000 0.000000
vn -0.070711 0.070711 0.000000
vn -0.070711 0.070711 0.000000
vn -0.070711 0.070711 0.000000
vn -0.070711 0.070711 0.000000
vn 0.000000 0.000000 0.100000
vn 0.000000 0.000000 0.100000
vn 0.000000 0.000000 0.100000
vn -0.000000 0.000000 -0.100000
vn -0.000000 0.000000 -0.100000
vn -0.000000 0.000000 -0.100000
usemtl Steel_-_Satin
f 1/1/1 2/2/2 4/3/3
f 4/3/3 2/2/2 3/4/4
f 5/5/5 1/6/6 6/7/7
f 6/7/7 1/6/6 4/8/8
f 2/9/9 5/10/10 3/11/11
f 3/11/11 5/10/10 6/12/12
f 3/13/13 6/14/14 4/15/15
f 5/16/16 2/17/17 1/18/18
# 6 vertices
# 18 texture params
# 18 normals
# 8 facets

# 1 groups
